# xmcd
#
# Track frame offsets:
# 150
# 7992
# 28114
# 44800
# 59117
# 79275
# 94713
# 107549
# 122869
# 145509
# 165943
# 179866
# 202094
# 223272
#
# Disc length: 3172 seconds
#
# Revision: 1
# Processed by: cddbd v1.5.2PL0 Copyright (c) Steve Scherf et al.
# Submitted via: CedeCatalogueitor 2.6.0.6 http://personales.ya.com/cdcatalogueitor
#
DISCID=d00c620e
DTITLE=Eric Lindell - Change In The Weather
DYEAR=2006
DGENRE=
TTITLE0=Give It Time
TTITLE1=Two Bit Time
TTITLE2=Feel Like I Do
TTITLE3=All Alone
TTITLE4=Should Have Know
TTITLE5=Casanova
TTITLE6=See Me Through
TTITLE7=Sunny Daze
TTITLE8=It Won't Be Long
TTITLE9=Sad But True
TTITLE10=Let Me Know
TTITLE11=Uncle John
TTITLE12=Lady Jane
TTITLE13=Lazy Days
EXTD=
EXTT0=
EXTT1=
EXTT2=
EXTT3=
EXTT4=
EXTT5=
EXTT6=
EXTT7=
EXTT8=
EXTT9=
EXTT10=
EXTT11=
EXTT12=
EXTT13=
PLAYORDER=
